<?xml version="1.0" encoding="UTF-8"?>
<svg width="1024" height="1024" viewBox="0 0 1024 1024" xmlns="http://www.w3.org/2000/svg">
  <!-- Black background -->
  <rect width="1024" height="1024" fill="#000000"/>
  
  <!-- Lyre outline in golden color -->
  <g fill="none" stroke="#FFD700" stroke-width="8" stroke-linecap="round" stroke-linejoin="round">
    <!-- Main body/frame -->
    <circle cx="512" cy="650" r="168" fill="none" stroke="#FFD700" stroke-width="8"/>
    
    <!-- Crossbar near bottom -->
    <line x1="386" y1="775" x2="638" y2="775"/>
    
    <!-- Vertical arms -->
    <line x1="386" y1="775" x2="300" y2="200"/>
    <line x1="638" y1="775" x2="724" y2="200"/>
    
    <!-- Top crossbar -->
    <line x1="300" y1="200" x2="724" y2="200"/>
    
    <!-- Sound hole (drawn first so strings appear over it) -->
    <circle cx="512" cy="650" r="60" fill="#000000" stroke="#FFD700" stroke-width="4"/>
    
    <!-- Strings (7 strings equally spaced over 20% wider area) -->
    <line x1="437" y1="200" x2="437" y2="800"/>
    <line x1="462" y1="200" x2="462" y2="800"/>
    <line x1="487" y1="200" x2="487" y2="800"/>
    <line x1="512" y1="200" x2="512" y2="800"/>
    <line x1="537" y1="200" x2="537" y2="800"/>
    <line x1="562" y1="200" x2="562" y2="800"/>
    <line x1="587" y1="200" x2="587" y2="800"/>
    
    <!-- Tuning pegs -->
    <circle cx="437" cy="200" r="8" fill="#FFD700"/>
    <circle cx="462" cy="200" r="8" fill="#FFD700"/>
    <circle cx="487" cy="200" r="8" fill="#FFD700"/>
    <circle cx="512" cy="200" r="8" fill="#FFD700"/>
    <circle cx="537" cy="200" r="8" fill="#FFD700"/>
    <circle cx="562" cy="200" r="8" fill="#FFD700"/>
    <circle cx="587" cy="200" r="8" fill="#FFD700"/>
    
    <!-- Decorative elements -->
    <circle cx="478" cy="720" r="8" fill="#FFD700"/>
    <circle cx="546" cy="720" r="8" fill="#FFD700"/>
  </g>
</svg>